<svg width="46" height="46" viewBox="0 0 46 46" fill="none" xmlns="http://www.w3.org/2000/svg">
<path d="M2.16211 14.3074V6.65398L7.98533 3.65918L10.3146 4.74064L4.15864 7.56906V15.3888L2.16211 14.3074Z" fill="white"/>
<path d="M16.0547 39.0977V36.8516L22.6266 39.68L28.9489 36.8516V39.0977L22.6266 42.2588L16.0547 39.0977Z" fill="white"/>
<path d="M43.0079 14.3074L41.0113 15.3888V7.56906L35.1881 4.74064L37.0183 3.65918L43.0079 6.65398V14.3074Z" fill="white"/>
<path d="M2.16211 14.3074V6.65398L7.98533 3.65918L10.3146 4.74064L4.15864 7.56906V15.3888L2.16211 14.3074Z" stroke="white" stroke-width="0.166378"/>
<path d="M16.0547 39.0977V36.8516L22.6266 39.68L28.9489 36.8516V39.0977L22.6266 42.2588L16.0547 39.0977Z" stroke="white" stroke-width="0.166378"/>
<path d="M43.0079 14.3074L41.0113 15.3888V7.56906L35.1881 4.74064L37.0183 3.65918L43.0079 6.65398V14.3074Z" stroke="white" stroke-width="0.166378"/>
<mask id="path-2-outside-1_309_81" maskUnits="userSpaceOnUse" x="2.99316" y="18.7158" width="39" height="8" fill="black">
<rect fill="white" x="2.99316" y="18.7158" width="39" height="8"/>
<path d="M6.23011 26.2046C5.46782 26.2046 4.90359 26.0307 4.53742 25.683C4.17458 25.3321 3.99316 24.7914 3.99316 24.0608V21.8597C3.99316 21.1228 4.17458 20.5805 4.53742 20.2328C4.90026 19.8819 5.46116 19.7096 6.22012 19.716H7.42847C8.05428 19.716 8.53196 19.8404 8.86151 20.0892C9.19106 20.3349 9.38247 20.724 9.43573 21.2568C9.4557 21.3908 9.42907 21.4929 9.35584 21.563C9.2826 21.6332 9.17608 21.6683 9.03627 21.6683C8.78328 21.6683 8.63682 21.5343 8.59687 21.2664C8.56358 20.9729 8.45706 20.7751 8.27731 20.673C8.10088 20.5709 7.81794 20.5199 7.42847 20.5199H6.22012C5.86727 20.5167 5.58932 20.555 5.38626 20.6347C5.18653 20.7145 5.0434 20.8532 4.95685 21.051C4.87363 21.2456 4.83202 21.5152 4.83202 21.8597V24.0608C4.83202 24.4022 4.87363 24.6701 4.95685 24.8647C5.0434 25.0593 5.1882 25.1981 5.39125 25.281C5.59431 25.3608 5.87393 25.4007 6.23011 25.4007H7.42847C7.81794 25.4007 8.10088 25.3496 8.27731 25.2475C8.45706 25.1423 8.56358 24.9445 8.59687 24.6542C8.63682 24.3862 8.78328 24.2522 9.03627 24.2522C9.17608 24.2522 9.2826 24.2873 9.35584 24.3575C9.42907 24.4277 9.4557 24.5298 9.43573 24.6638C9.38247 25.1997 9.19106 25.5905 8.86151 25.8361C8.53196 26.0817 8.05428 26.2046 7.42847 26.2046H6.23011Z"/>
<path d="M13.3732 26.2046C12.6109 26.2046 12.0467 26.0307 11.6805 25.683C11.3177 25.3321 11.1363 24.7914 11.1363 24.0608V20.1179C11.1363 19.984 11.1712 19.8835 11.2411 19.8165C11.3111 19.7495 11.4159 19.716 11.5557 19.716C11.6955 19.716 11.8004 19.7495 11.8703 19.8165C11.9402 19.8835 11.9751 19.984 11.9751 20.1179V24.0608C11.9751 24.4022 12.0168 24.6701 12.1 24.8647C12.1865 25.0593 12.3313 25.1981 12.5344 25.281C12.7374 25.3608 13.0171 25.4007 13.3732 25.4007H14.5716C14.9278 25.4007 15.2074 25.3608 15.4105 25.281C15.6135 25.1981 15.7566 25.0593 15.8399 24.8647C15.9264 24.6701 15.9697 24.4022 15.9697 24.0608V20.1179C15.9697 19.984 16.0046 19.8835 16.0745 19.8165C16.1444 19.7495 16.2493 19.716 16.3891 19.716C16.5289 19.716 16.6338 19.7495 16.7037 19.8165C16.7736 19.8835 16.8085 19.984 16.8085 20.1179V24.0608C16.8085 24.7914 16.6271 25.3321 16.2643 25.683C15.9014 26.0307 15.3372 26.2046 14.5716 26.2046H13.3732Z"/>
<path d="M19.2515 26.2046C18.9718 26.2046 18.832 26.0706 18.832 25.8026V20.1179C18.832 19.85 18.9718 19.716 19.2515 19.716H21.8579C22.3872 19.716 22.7933 19.85 23.0762 20.1179C23.3625 20.3859 23.5056 20.7687 23.5056 21.2664V21.5248C23.5056 21.9554 23.3642 22.2888 23.0812 22.5248C23.6105 22.8087 23.8751 23.3271 23.8751 24.08V24.4054C23.8751 24.9923 23.712 25.4389 23.3858 25.7452C23.0629 26.0514 22.5969 26.2046 21.9877 26.2046H19.2515ZM19.6709 25.4007H21.9877C22.3639 25.4007 22.6318 25.3241 22.7916 25.171C22.9547 25.0147 23.0363 24.7595 23.0363 24.4054V24.08C23.0363 23.7259 22.9581 23.4739 22.8016 23.3239C22.6451 23.1708 22.3739 23.0943 21.9877 23.0943H19.6709V25.4007ZM19.6709 22.2904H22.0376C22.2806 22.2904 22.4454 22.2186 22.532 22.075C22.6218 21.9315 22.6668 21.7481 22.6668 21.5248V21.2664C22.6668 20.9888 22.6069 20.7958 22.487 20.6874C22.3672 20.5757 22.1575 20.5199 21.8579 20.5199H19.6709V22.2904Z"/>
<path d="M27.5486 26.2046C26.7863 26.2046 26.2221 26.0307 25.8559 25.683C25.4931 25.3321 25.3117 24.7914 25.3117 24.0608V21.8501C25.3117 21.1132 25.4948 20.5725 25.8609 20.228C26.2271 19.8803 26.7897 19.7096 27.5486 19.716H28.747C29.5126 19.716 30.0768 19.8899 30.4397 20.2376C30.8025 20.5853 30.9839 21.126 30.9839 21.8597V24.0608C30.9839 24.7914 30.8025 25.3321 30.4397 25.683C30.0768 26.0307 29.5126 26.2046 28.747 26.2046H27.5486ZM27.5486 25.4007H28.747C29.1032 25.4007 29.3828 25.3608 29.5858 25.281C29.7889 25.1981 29.932 25.0593 30.0153 24.8647C30.1018 24.6701 30.1451 24.4022 30.1451 24.0608V21.8597C30.1451 21.5216 30.1018 21.2552 30.0153 21.0606C29.932 20.866 29.7889 20.7272 29.5858 20.6443C29.3828 20.5614 29.1032 20.5199 28.747 20.5199H27.5486C27.1958 20.5167 26.9178 20.555 26.7148 20.6347C26.5117 20.7145 26.3669 20.8517 26.2804 21.0462C26.1938 21.2408 26.1505 21.5088 26.1505 21.8501V24.0608C26.1505 24.4022 26.1921 24.6701 26.2754 24.8647C26.3619 25.0593 26.5067 25.1981 26.7098 25.281C26.9128 25.3608 27.1924 25.4007 27.5486 25.4007Z"/>
<path d="M33.2362 26.2046C33.0931 26.2046 32.9866 26.1727 32.9167 26.1089C32.8501 26.0419 32.8168 25.9398 32.8168 25.8026V20.1275C32.8168 19.9871 32.8501 19.8851 32.9167 19.8213C32.9866 19.7575 33.0931 19.7256 33.2362 19.7256C33.3827 19.7256 33.4892 19.7575 33.5558 19.8213C33.6224 19.8851 33.6557 19.9871 33.6557 20.1275V25.8026C33.6557 25.9398 33.6224 26.0419 33.5558 26.1089C33.4892 26.1727 33.3827 26.2046 33.2362 26.2046Z"/>
<path d="M36.1522 26.2046C35.8726 26.2046 35.7328 26.0706 35.7328 25.8026V20.1179C35.7328 19.85 35.8726 19.716 36.1522 19.716H38.5589C39.4277 19.716 40.0668 19.9138 40.4763 20.3093C40.889 20.7017 41.0954 21.3142 41.0954 22.1468V23.7737C41.0954 24.6063 40.8907 25.2204 40.4813 25.616C40.0752 26.0084 39.4344 26.2046 38.5589 26.2046H36.1522ZM36.5716 25.4007H38.5589C38.985 25.4007 39.3212 25.3512 39.5675 25.2523C39.8172 25.1502 39.9936 24.9812 40.0968 24.7451C40.2033 24.5059 40.2566 24.1821 40.2566 23.7737V22.1468C40.2566 21.7417 40.2033 21.4211 40.0968 21.185C39.9936 20.9458 39.8172 20.7751 39.5675 20.673C39.3212 20.5709 38.985 20.5199 38.5589 20.5199H36.5716V25.4007Z"/>
</mask>
<path d="M6.23011 26.2046C5.46782 26.2046 4.90359 26.0307 4.53742 25.683C4.17458 25.3321 3.99316 24.7914 3.99316 24.0608V21.8597C3.99316 21.1228 4.17458 20.5805 4.53742 20.2328C4.90026 19.8819 5.46116 19.7096 6.22012 19.716H7.42847C8.05428 19.716 8.53196 19.8404 8.86151 20.0892C9.19106 20.3349 9.38247 20.724 9.43573 21.2568C9.4557 21.3908 9.42907 21.4929 9.35584 21.563C9.2826 21.6332 9.17608 21.6683 9.03627 21.6683C8.78328 21.6683 8.63682 21.5343 8.59687 21.2664C8.56358 20.9729 8.45706 20.7751 8.27731 20.673C8.10088 20.5709 7.81794 20.5199 7.42847 20.5199H6.22012C5.86727 20.5167 5.58932 20.555 5.38626 20.6347C5.18653 20.7145 5.0434 20.8532 4.95685 21.051C4.87363 21.2456 4.83202 21.5152 4.83202 21.8597V24.0608C4.83202 24.4022 4.87363 24.6701 4.95685 24.8647C5.0434 25.0593 5.1882 25.1981 5.39125 25.281C5.59431 25.3608 5.87393 25.4007 6.23011 25.4007H7.42847C7.81794 25.4007 8.10088 25.3496 8.27731 25.2475C8.45706 25.1423 8.56358 24.9445 8.59687 24.6542C8.63682 24.3862 8.78328 24.2522 9.03627 24.2522C9.17608 24.2522 9.2826 24.2873 9.35584 24.3575C9.42907 24.4277 9.4557 24.5298 9.43573 24.6638C9.38247 25.1997 9.19106 25.5905 8.86151 25.8361C8.53196 26.0817 8.05428 26.2046 7.42847 26.2046H6.23011Z" fill="white"/>
<path d="M13.3732 26.2046C12.6109 26.2046 12.0467 26.0307 11.6805 25.683C11.3177 25.3321 11.1363 24.7914 11.1363 24.0608V20.1179C11.1363 19.984 11.1712 19.8835 11.2411 19.8165C11.3111 19.7495 11.4159 19.716 11.5557 19.716C11.6955 19.716 11.8004 19.7495 11.8703 19.8165C11.9402 19.8835 11.9751 19.984 11.9751 20.1179V24.0608C11.9751 24.4022 12.0168 24.6701 12.1 24.8647C12.1865 25.0593 12.3313 25.1981 12.5344 25.281C12.7374 25.3608 13.0171 25.4007 13.3732 25.4007H14.5716C14.9278 25.4007 15.2074 25.3608 15.4105 25.281C15.6135 25.1981 15.7566 25.0593 15.8399 24.8647C15.9264 24.6701 15.9697 24.4022 15.9697 24.0608V20.1179C15.9697 19.984 16.0046 19.8835 16.0745 19.8165C16.1444 19.7495 16.2493 19.716 16.3891 19.716C16.5289 19.716 16.6338 19.7495 16.7037 19.8165C16.7736 19.8835 16.8085 19.984 16.8085 20.1179V24.0608C16.8085 24.7914 16.6271 25.3321 16.2643 25.683C15.9014 26.0307 15.3372 26.2046 14.5716 26.2046H13.3732Z" fill="white"/>
<path d="M19.2515 26.2046C18.9718 26.2046 18.832 26.0706 18.832 25.8026V20.1179C18.832 19.85 18.9718 19.716 19.2515 19.716H21.8579C22.3872 19.716 22.7933 19.85 23.0762 20.1179C23.3625 20.3859 23.5056 20.7687 23.5056 21.2664V21.5248C23.5056 21.9554 23.3642 22.2888 23.0812 22.5248C23.6105 22.8087 23.8751 23.3271 23.8751 24.08V24.4054C23.8751 24.9923 23.712 25.4389 23.3858 25.7452C23.0629 26.0514 22.5969 26.2046 21.9877 26.2046H19.2515ZM19.6709 25.4007H21.9877C22.3639 25.4007 22.6318 25.3241 22.7916 25.171C22.9547 25.0147 23.0363 24.7595 23.0363 24.4054V24.08C23.0363 23.7259 22.9581 23.4739 22.8016 23.3239C22.6451 23.1708 22.3739 23.0943 21.9877 23.0943H19.6709V25.4007ZM19.6709 22.2904H22.0376C22.2806 22.2904 22.4454 22.2186 22.532 22.075C22.6218 21.9315 22.6668 21.7481 22.6668 21.5248V21.2664C22.6668 20.9888 22.6069 20.7958 22.487 20.6874C22.3672 20.5757 22.1575 20.5199 21.8579 20.5199H19.6709V22.2904Z" fill="white"/>
<path d="M27.5486 26.2046C26.7863 26.2046 26.2221 26.0307 25.8559 25.683C25.4931 25.3321 25.3117 24.7914 25.3117 24.0608V21.8501C25.3117 21.1132 25.4948 20.5725 25.8609 20.228C26.2271 19.8803 26.7897 19.7096 27.5486 19.716H28.747C29.5126 19.716 30.0768 19.8899 30.4397 20.2376C30.8025 20.5853 30.9839 21.126 30.9839 21.8597V24.0608C30.9839 24.7914 30.8025 25.3321 30.4397 25.683C30.0768 26.0307 29.5126 26.2046 28.747 26.2046H27.5486ZM27.5486 25.4007H28.747C29.1032 25.4007 29.3828 25.3608 29.5858 25.281C29.7889 25.1981 29.932 25.0593 30.0153 24.8647C30.1018 24.6701 30.1451 24.4022 30.1451 24.0608V21.8597C30.1451 21.5216 30.1018 21.2552 30.0153 21.0606C29.932 20.866 29.7889 20.7272 29.5858 20.6443C29.3828 20.5614 29.1032 20.5199 28.747 20.5199H27.5486C27.1958 20.5167 26.9178 20.555 26.7148 20.6347C26.5117 20.7145 26.3669 20.8517 26.2804 21.0462C26.1938 21.2408 26.1505 21.5088 26.1505 21.8501V24.0608C26.1505 24.4022 26.1921 24.6701 26.2754 24.8647C26.3619 25.0593 26.5067 25.1981 26.7098 25.281C26.9128 25.3608 27.1924 25.4007 27.5486 25.4007Z" fill="white"/>
<path d="M33.2362 26.2046C33.0931 26.2046 32.9866 26.1727 32.9167 26.1089C32.8501 26.0419 32.8168 25.9398 32.8168 25.8026V20.1275C32.8168 19.9871 32.8501 19.8851 32.9167 19.8213C32.9866 19.7575 33.0931 19.7256 33.2362 19.7256C33.3827 19.7256 33.4892 19.7575 33.5558 19.8213C33.6224 19.8851 33.6557 19.9871 33.6557 20.1275V25.8026C33.6557 25.9398 33.6224 26.0419 33.5558 26.1089C33.4892 26.1727 33.3827 26.2046 33.2362 26.2046Z" fill="white"/>
<path d="M36.1522 26.2046C35.8726 26.2046 35.7328 26.0706 35.7328 25.8026V20.1179C35.7328 19.85 35.8726 19.716 36.1522 19.716H38.5589C39.4277 19.716 40.0668 19.9138 40.4763 20.3093C40.889 20.7017 41.0954 21.3142 41.0954 22.1468V23.7737C41.0954 24.6063 40.8907 25.2204 40.4813 25.616C40.0752 26.0084 39.4344 26.2046 38.5589 26.2046H36.1522ZM36.5716 25.4007H38.5589C38.985 25.4007 39.3212 25.3512 39.5675 25.2523C39.8172 25.1502 39.9936 24.9812 40.0968 24.7451C40.2033 24.5059 40.2566 24.1821 40.2566 23.7737V22.1468C40.2566 21.7417 40.2033 21.4211 40.0968 21.185C39.9936 20.9458 39.8172 20.7751 39.5675 20.673C39.3212 20.5709 38.985 20.5199 38.5589 20.5199H36.5716V25.4007Z" fill="white"/>
<path d="M6.23011 26.2046C5.46782 26.2046 4.90359 26.0307 4.53742 25.683C4.17458 25.3321 3.99316 24.7914 3.99316 24.0608V21.8597C3.99316 21.1228 4.17458 20.5805 4.53742 20.2328C4.90026 19.8819 5.46116 19.7096 6.22012 19.716H7.42847C8.05428 19.716 8.53196 19.8404 8.86151 20.0892C9.19106 20.3349 9.38247 20.724 9.43573 21.2568C9.4557 21.3908 9.42907 21.4929 9.35584 21.563C9.2826 21.6332 9.17608 21.6683 9.03627 21.6683C8.78328 21.6683 8.63682 21.5343 8.59687 21.2664C8.56358 20.9729 8.45706 20.7751 8.27731 20.673C8.10088 20.5709 7.81794 20.5199 7.42847 20.5199H6.22012C5.86727 20.5167 5.58932 20.555 5.38626 20.6347C5.18653 20.7145 5.0434 20.8532 4.95685 21.051C4.87363 21.2456 4.83202 21.5152 4.83202 21.8597V24.0608C4.83202 24.4022 4.87363 24.6701 4.95685 24.8647C5.0434 25.0593 5.1882 25.1981 5.39125 25.281C5.59431 25.3608 5.87393 25.4007 6.23011 25.4007H7.42847C7.81794 25.4007 8.10088 25.3496 8.27731 25.2475C8.45706 25.1423 8.56358 24.9445 8.59687 24.6542C8.63682 24.3862 8.78328 24.2522 9.03627 24.2522C9.17608 24.2522 9.2826 24.2873 9.35584 24.3575C9.42907 24.4277 9.4557 24.5298 9.43573 24.6638C9.38247 25.1997 9.19106 25.5905 8.86151 25.8361C8.53196 26.0817 8.05428 26.2046 7.42847 26.2046H6.23011Z" stroke="white" stroke-width="0.665511" mask="url(#path-2-outside-1_309_81)"/>
<path d="M13.3732 26.2046C12.6109 26.2046 12.0467 26.0307 11.6805 25.683C11.3177 25.3321 11.1363 24.7914 11.1363 24.0608V20.1179C11.1363 19.984 11.1712 19.8835 11.2411 19.8165C11.3111 19.7495 11.4159 19.716 11.5557 19.716C11.6955 19.716 11.8004 19.7495 11.8703 19.8165C11.9402 19.8835 11.9751 19.984 11.9751 20.1179V24.0608C11.9751 24.4022 12.0168 24.6701 12.1 24.8647C12.1865 25.0593 12.3313 25.1981 12.5344 25.281C12.7374 25.3608 13.0171 25.4007 13.3732 25.4007H14.5716C14.9278 25.4007 15.2074 25.3608 15.4105 25.281C15.6135 25.1981 15.7566 25.0593 15.8399 24.8647C15.9264 24.6701 15.9697 24.4022 15.9697 24.0608V20.1179C15.9697 19.984 16.0046 19.8835 16.0745 19.8165C16.1444 19.7495 16.2493 19.716 16.3891 19.716C16.5289 19.716 16.6338 19.7495 16.7037 19.8165C16.7736 19.8835 16.8085 19.984 16.8085 20.1179V24.0608C16.8085 24.7914 16.6271 25.3321 16.2643 25.683C15.9014 26.0307 15.3372 26.2046 14.5716 26.2046H13.3732Z" stroke="white" stroke-width="0.665511" mask="url(#path-2-outside-1_309_81)"/>
<path d="M19.2515 26.2046C18.9718 26.2046 18.832 26.0706 18.832 25.8026V20.1179C18.832 19.85 18.9718 19.716 19.2515 19.716H21.8579C22.3872 19.716 22.7933 19.85 23.0762 20.1179C23.3625 20.3859 23.5056 20.7687 23.5056 21.2664V21.5248C23.5056 21.9554 23.3642 22.2888 23.0812 22.5248C23.6105 22.8087 23.8751 23.3271 23.8751 24.08V24.4054C23.8751 24.9923 23.712 25.4389 23.3858 25.7452C23.0629 26.0514 22.5969 26.2046 21.9877 26.2046H19.2515ZM19.6709 25.4007H21.9877C22.3639 25.4007 22.6318 25.3241 22.7916 25.171C22.9547 25.0147 23.0363 24.7595 23.0363 24.4054V24.08C23.0363 23.7259 22.9581 23.4739 22.8016 23.3239C22.6451 23.1708 22.3739 23.0943 21.9877 23.0943H19.6709V25.4007ZM19.6709 22.2904H22.0376C22.2806 22.2904 22.4454 22.2186 22.532 22.075C22.6218 21.9315 22.6668 21.7481 22.6668 21.5248V21.2664C22.6668 20.9888 22.6069 20.7958 22.487 20.6874C22.3672 20.5757 22.1575 20.5199 21.8579 20.5199H19.6709V22.2904Z" stroke="white" stroke-width="0.665511" mask="url(#path-2-outside-1_309_81)"/>
<path d="M27.5486 26.2046C26.7863 26.2046 26.2221 26.0307 25.8559 25.683C25.4931 25.3321 25.3117 24.7914 25.3117 24.0608V21.8501C25.3117 21.1132 25.4948 20.5725 25.8609 20.228C26.2271 19.8803 26.7897 19.7096 27.5486 19.716H28.747C29.5126 19.716 30.0768 19.8899 30.4397 20.2376C30.8025 20.5853 30.9839 21.126 30.9839 21.8597V24.0608C30.9839 24.7914 30.8025 25.3321 30.4397 25.683C30.0768 26.0307 29.5126 26.2046 28.747 26.2046H27.5486ZM27.5486 25.4007H28.747C29.1032 25.4007 29.3828 25.3608 29.5858 25.281C29.7889 25.1981 29.932 25.0593 30.0153 24.8647C30.1018 24.6701 30.1451 24.4022 30.1451 24.0608V21.8597C30.1451 21.5216 30.1018 21.2552 30.0153 21.0606C29.932 20.866 29.7889 20.7272 29.5858 20.6443C29.3828 20.5614 29.1032 20.5199 28.747 20.5199H27.5486C27.1958 20.5167 26.9178 20.555 26.7148 20.6347C26.5117 20.7145 26.3669 20.8517 26.2804 21.0462C26.1938 21.2408 26.1505 21.5088 26.1505 21.8501V24.0608C26.1505 24.4022 26.1921 24.6701 26.2754 24.8647C26.3619 25.0593 26.5067 25.1981 26.7098 25.281C26.9128 25.3608 27.1924 25.4007 27.5486 25.4007Z" stroke="white" stroke-width="0.665511" mask="url(#path-2-outside-1_309_81)"/>
<path d="M33.2362 26.2046C33.0931 26.2046 32.9866 26.1727 32.9167 26.1089C32.8501 26.0419 32.8168 25.9398 32.8168 25.8026V20.1275C32.8168 19.9871 32.8501 19.8851 32.9167 19.8213C32.9866 19.7575 33.0931 19.7256 33.2362 19.7256C33.3827 19.7256 33.4892 19.7575 33.5558 19.8213C33.6224 19.8851 33.6557 19.9871 33.6557 20.1275V25.8026C33.6557 25.9398 33.6224 26.0419 33.5558 26.1089C33.4892 26.1727 33.3827 26.2046 33.2362 26.2046Z" stroke="white" stroke-width="0.665511" mask="url(#path-2-outside-1_309_81)"/>
<path d="M36.1522 26.2046C35.8726 26.2046 35.7328 26.0706 35.7328 25.8026V20.1179C35.7328 19.85 35.8726 19.716 36.1522 19.716H38.5589C39.4277 19.716 40.0668 19.9138 40.4763 20.3093C40.889 20.7017 41.0954 21.3142 41.0954 22.1468V23.7737C41.0954 24.6063 40.8907 25.2204 40.4813 25.616C40.0752 26.0084 39.4344 26.2046 38.5589 26.2046H36.1522ZM36.5716 25.4007H38.5589C38.985 25.4007 39.3212 25.3512 39.5675 25.2523C39.8172 25.1502 39.9936 24.9812 40.0968 24.7451C40.2033 24.5059 40.2566 24.1821 40.2566 23.7737V22.1468C40.2566 21.7417 40.2033 21.4211 40.0968 21.185C39.9936 20.9458 39.8172 20.7751 39.5675 20.673C39.3212 20.5709 38.985 20.5199 38.5589 20.5199H36.5716V25.4007Z" stroke="white" stroke-width="0.665511" mask="url(#path-2-outside-1_309_81)"/>
</svg>
