<svg width="34" height="34" viewBox="0 0 34 34" fill="none" xmlns="http://www.w3.org/2000/svg">
<g clip-path="url(#clip0_350_2)">
<path d="M23.8355 13.4168L18.6739 9.46601L18.7352 3.21631L29.8523 11.7257L23.8355 13.4168ZM19.6788 8.97583L24.0462 12.3188L27.6563 11.3041L19.7155 5.22601L19.6788 8.97583Z" fill="white"/>
<path d="M11.1035 27.5984L8.30954 25.4598L8.31938 25.201C8.3363 24.77 8.7562 14.6082 11.2552 11.3434C13.8357 7.97209 19.0293 8.69402 19.2494 8.72648L19.3775 8.74513L24.3476 12.5494L24.3995 12.6684C24.4879 12.8721 26.541 17.6971 23.9605 21.0683C21.4615 24.3332 11.762 27.3921 11.3504 27.521L11.1035 27.5984ZM9.33067 24.9821L11.2972 26.4873C12.8298 25.988 21.0658 23.2049 23.1664 20.4605C25.1926 17.8135 23.8095 13.8999 23.529 13.1821L18.9809 9.70089C18.2142 9.61908 14.0697 9.31165 12.0493 11.9512C9.9487 14.6955 9.41284 23.3726 9.33067 24.9821Z" fill="white"/>
<path d="M16.3922 17.794C15.2976 16.9561 15.0887 15.3839 15.9265 14.2893C16.7644 13.1946 18.3366 12.9857 19.4312 13.8236C20.5259 14.6615 20.7348 16.2337 19.8969 17.3283C19.0591 18.423 17.4868 18.6319 16.3922 17.794ZM18.8234 14.6177C18.1667 14.115 17.2233 14.2404 16.7206 14.8971C16.2179 15.5538 16.3433 16.4973 17 16.9999C17.6567 17.5026 18.6002 17.3772 19.1028 16.7205C19.6055 16.0638 19.4801 15.1203 18.8234 14.6177ZM15.9952 17.4901L16.7892 18.0979L10.1033 26.8328L9.30924 26.225L15.9952 17.4901Z" fill="white"/>
</g>
<defs>
<clipPath id="clip0_350_2">
<rect width="24" height="24" fill="white" transform="translate(14.7648 0.177246) rotate(37.4314)"/>
</clipPath>
</defs>
</svg>
