<svg width="34" height="34" viewBox="0 0 34 34" fill="none" xmlns="http://www.w3.org/2000/svg">
<g clip-path="url(#clip0_350_9)">
<path d="M10.9061 7.99276L12.1109 24.8831L16.6048 28.5864L15.2908 29.4754L16.1313 30.7178L30.0565 21.2967L29.2159 20.0543L27.9019 20.9433L26.1361 15.3943L10.9061 7.99276ZM17.0029 17.0042C17.4042 16.7327 17.9516 16.8381 18.2233 17.2397C18.495 17.6413 18.3892 18.1887 17.9879 18.4601C17.5866 18.7316 17.0391 18.6263 16.7674 18.2247C16.4957 17.8231 16.6016 17.2757 17.0029 17.0042ZM12.694 11.9737L15.6155 16.2921C15.0117 17.0824 14.9377 18.1971 15.525 19.0652C16.2601 20.1517 17.7419 20.4376 18.8284 19.7025C19.9149 18.9675 20.2008 17.4856 19.4657 16.3992C18.8784 15.531 17.8162 15.185 16.8579 15.4515L13.9363 11.1332L24.902 16.4627L26.6068 21.8195L17.8999 27.7102L13.5617 24.135L12.694 11.9737Z" fill="white"/>
</g>
<defs>
<clipPath id="clip0_350_9">
<rect width="24" height="24" fill="white" transform="translate(0.336731 13.7853) rotate(-34.0805)"/>
</clipPath>
</defs>
</svg>
